<svg version="1.2" xmlns="http://www.w3.org/2000/svg" viewBox="0 0 691 261" width="691" height="261">
	<title>창원특례시-슬로건변경 (가로형) (1)</title>
	<style>
		.s0 { fill: #2c2c2c } 
	</style>
	<g id="레이어 1">
		<g id="&lt;Group&gt;">
			<g id="&lt;Group&gt;">
				<path id="&lt;Compound Path&gt;" class="s0" d="m450.4 204.4q0 1.7 1.6 1.7h4.9q2.7 0 3.9 1.2 1.3 1.2 1.3 3.9v1.3q0 2.6-1.3 3.9-1.2 1.2-3.9 1.2-0.8 0-1.7 0-0.9 0-1.9 0-0.9 0-1.9 0-0.9 0-1.8 0-2 0-3.9-0.3v-3.5q2 0 3.9 0 1.6 0 3.3 0 1.7 0 2.9 0 0.6 0 1-0.4 0.4-0.3 0.4-0.9v-2.3h-6.3q-2.9 0-4.2-1.3-1.3-1.3-1.3-4.2v-0.8q0-2.9 1.3-4.2 1.3-1.3 4.2-1.3h9.6v3.8h-8.5q-1.6 0-1.6 1.7z"/>
				<path id="&lt;Compound Path&gt;" fill-rule="evenodd" class="s0" d="m464.6 198.4h11.4q2.9 0 4.2 1.3 1.3 1.3 1.3 4.2v2.7q0 2.9-1.3 4.2-1.3 1.3-4.2 1.3h-6.5v5.4h-4.9zm12 5.5q0-1.6-1.7-1.6h-5.4v6h5.4q1.7 0 1.7-1.7z"/>
				<path id="&lt;Compound Path&gt;" class="s0" d="m499.1 217.5h-15.1v-19.1h15.1v3.8h-10.2v3.7h8v3.8h-8v4h10.2z"/>
				<path id="&lt;Compound Path&gt;" class="s0" d="m506 217.6q-2.7 0-4-1.2-1.2-1.3-1.2-3.9v-8.7q0-2.8 1.3-4.1 1.3-1.3 4.1-1.3h9.9v3.8h-8.8q-1.6 0-1.6 1.7v8.7q0 0.6 0.4 1 0.3 0.3 1 0.3 0.5 0 1.2 0 0.6 0 1.4 0 0.7 0 1.5 0 0.7 0 1.4-0.2 1.7 0 3.5 0v3.6q-1.9 0.3-3.7 0.3-1.5 0-3.3 0-1.7 0-3.1 0z"/>
				<path id="&lt;Compound Path&gt;" class="s0" d="m527.3 217.5h-9.9v-3.8h2.5v-11.5h-2.5v-3.8h9.9v3.8h-2.5v11.5h2.5z"/>
				<path id="&lt;Compound Path&gt;" fill-rule="evenodd" class="s0" d="m533.2 217.5h-5.4l7.3-19.1h5.4l7.3 19.1h-5.4l-1.2-3.4h-6.8zm2.4-7h4.4l-2.2-6.4z"/>
				<path id="&lt;Compound Path&gt;" class="s0" d="m554.1 213.7h9.9v3.8h-14.9v-19.1h5z"/>
				<path id="&lt;Compound Path&gt;" class="s0" d="m578.8 217.6q-2.7 0-3.9-1.2-1.3-1.3-1.3-3.9v-8.7q0-2.8 1.3-4.1 1.3-1.3 4.2-1.3h9.8v3.8h-8.7q-1.7 0-1.7 1.7v8.7q0 0.6 0.4 1 0.3 0.3 1 0.3 0.5 0 1.2 0 0.7 0 1.4 0 0.7 0 1.5 0 0.7 0 1.5-0.2 1.6 0 3.4 0v3.6q-1.8 0.3-3.6 0.3-1.6 0-3.3 0-1.8 0-3.2 0z"/>
				<path id="&lt;Compound Path&gt;" class="s0" d="m600.1 217.5h-9.8v-3.8h2.4v-11.5h-2.4v-3.8h9.8v3.8h-2.5v11.5h2.5z"/>
				<path id="&lt;Compound Path&gt;" class="s0" d="m611.8 217.5h-4.9v-15.3h-5.7v-3.8h16.4v3.8h-5.8z"/>
				<path id="&lt;Compound Path&gt;" class="s0" d="m617.3 198.4h5.2l4.5 9.3 4.5-9.3h5.2l-7.2 14.1v5h-4.9v-5z"/>
			</g>
		</g>
		<g id="&lt;Group&gt;">
			<path id="&lt;Path&gt;" class="s0" d="m219.3 84.8c0 15.7-10.4 29-24.7 33.4v38.7h-20.3v-37.2h-54.1v60.1c0 19.2-15.7 34.9-34.9 34.9-19.3 0-35-15.7-35-34.9 0-19.3 15.7-35 35-35q2.7 0.1 5.4 0.5v20.9c-1.7-0.7-3.5-1.1-5.4-1.1-8.1 0-14.7 6.6-14.7 14.7 0 8 6.6 14.6 14.7 14.6 8 0 14.6-6.6 14.6-14.6v-131h20.3v50.6h64.3c8 0 14.5-6.6 14.5-14.6 0-8.1-6.6-14.7-14.6-14.7-8.1 0-14.7 6.6-14.7 14.7 0 1.9 0.4 3.7 1.1 5.4h-20.9q-0.5-2.6-0.5-5.4c0-19.3 15.7-34.9 35-34.9 19.3 0 34.9 15.6 34.9 34.9z"/>
		</g>
		<g id="&lt;Group&gt;">
			<path id="&lt;Path&gt;" fill-rule="evenodd" class="s0" d="m533.7 48.8v96.2h-20.3v-96.2z"/>
		</g>
		<g id="&lt;Group&gt;">
			<path id="&lt;Path&gt;" class="s0" d="m356.6 227.3v32.4h-20.4v-32.4c0-7-5.6-12.6-12.5-12.6h-139.5c-21.5 0-39-17.5-39-39v-18.8h20.3v18.8c0 10.3 8.4 18.7 18.7 18.7h139.5c18.1 0 32.9 14.8 32.9 32.9z"/>
		</g>
		<g id="&lt;Group&gt;">
			<path id="&lt;Path&gt;" class="s0" d="m445 143.4h-45.1c-11.9 0-21.6-9.7-21.6-21.6v-13.7c0-11.9 9.7-21.6 21.6-21.6h23.5c0.7 0 1.3-0.6 1.3-1.3v-13.7c0-0.8-0.6-1.3-1.3-1.3h-45v-20.3h45c11.9 0 21.6 9.7 21.6 21.6v13.7c0 11.9-9.7 21.6-21.6 21.6h-23.5c-0.7 0-1.3 0.6-1.3 1.3v13.7c0 0.8 0.6 1.3 1.3 1.3h45.1z"/>
		</g>
		<g id="&lt;Group&gt;">
			<path id="&lt;Path&gt;" fill-rule="evenodd" class="s0" d="m355 160.5v20.3h-83v-20.3z"/>
		</g>
		<g id="&lt;Group&gt;">
			<path id="&lt;Path&gt;" class="s0" d="m690.6 0v144.7h-20.3v-124.4h-620.3v43.6h29.6v20.3h-11.1c3.2 5.2 5.1 11.4 5.1 18v35.8h-20.3v-35.8c0-7.5-6.1-13.5-13.5-13.5-7.4 0-13.5 6-13.5 13.5v36h-20.3v-36c0-6.6 1.9-12.8 5.1-18h-11.1v-20.3h29.7v-63.9z"/>
			<path id="&lt;Path&gt;" class="s0" d="m670.3 153.9h20.3v107.1h-319v-20.3h298.7z"/>
			<path id="&lt;Path&gt; copy" class="s0" d="m990.3 261.9h20.3v107.1h-319v-20.3h298.7z"/>
		</g>
		<g id="&lt;Group&gt;">
			<path id="&lt;Path&gt;" class="s0" d="m253.4 178.4h-49.1v-20.2h28.8v-109.4h20.3z"/>
		</g>
		<g id="&lt;Group&gt;">
			<path id="&lt;Path&gt;" class="s0" d="m495.5 48.8v96.2h-20.4v-19.6h-18.9v-20.3h18.9v-16.9h-18.9v-20.3h18.9v-19.1z"/>
		</g>
		<g id="&lt;Group&gt;">
			<path id="&lt;Path&gt;" class="s0" d="m639.4 91.4v53.3h-20.3v-53.3c0-11.7-9.6-21.3-21.3-21.3-11.6 0-21.2 9.6-21.2 21.3v53.6h-20.3v-53.6c0-22.9 18.6-41.5 41.5-41.5 22.9 0 41.6 18.6 41.6 41.5z"/>
		</g>
		<path id="&lt;Path&gt;" class="s0" d="m307.5 70.1h41.3v-20.2h-41.3c-15 0-27.2 13-27.2 29.1v35.3c0 16.1 12.2 29.1 27.2 29.1h41.3v-20.3h-41.3c-3.8 0-6.9-4-6.9-8.8v-7.5h48.2v-20.3h-48.2v-7.5c0-4.8 3.1-8.9 6.9-8.9z"/>
		<g id="&lt;Group&gt;">
			<path id="&lt;Compound Path&gt;" class="s0" d="m481.2 189.2q-2.6 0-3.9-1.3-1.3-1.2-1.3-3.9v-8.6q0-2.9 1.3-4.2 1.3-1.2 4.2-1.2h9.8v3.8h-8.7q-1.6 0-1.6 1.6v8.7q0 0.6 0.3 1 0.4 0.4 1 0.4 0.6 0 1.2 0 0.7 0 1.5 0 0.7 0 1.4 0 0.8 0 1.5-0.3 1.7 0 3.4 0v3.6q-1.8 0.4-3.6 0.4-1.5 0-3.3 0-1.7 0-3.2 0z"/>
			<path id="&lt;Compound Path&gt;" class="s0" d="m510.2 189.1h-4.9v-7.8h-6.8v7.8h-5v-19.1h5v7.5h6.8v-7.5h4.9z"/>
			<path id="&lt;Compound Path&gt;" fill-rule="evenodd" class="s0" d="m516.9 189.1h-5.3l7.2-19.1h5.5l7.2 19.1h-5.3l-1.2-3.4h-6.9zm2.5-7h4.4l-2.2-6.4z"/>
			<path id="&lt;Compound Path&gt;" class="s0" d="m549.6 189.1h-5.2l-6.6-11.5v11.5h-4.9v-19.1h5.2l6.5 11.4v-11.4h5z"/>
			<path id="&lt;Compound Path&gt;" class="s0" d="m557.5 189.3q-2.7 0-4-1.3-1.2-1.2-1.2-3.9v-8.7q0-2.9 1.3-4.2 1.3-1.2 4.1-1.2h9.9v3.8h-8.8q-1.6 0-1.6 1.6v8.7q0 0.6 0.4 1 0.3 0.4 1 0.4 0.8 0 1.8 0 1 0 1.9 0 1 0 2 0v-4.1h-3.5v-3.2h8.4v10.5q-2 0.3-4.1 0.3-1.8 0.3-3.8 0.3-2.1 0-3.8 0z"/>
			<path id="&lt;Compound Path&gt;" class="s0" d="m585.1 170l3.3 12.2 2.8-12.2h5.4l-5.2 19.1h-5.2l-3.3-11.9-3.3 11.9h-5.2l-5.2-19.1h5.4l2.8 12.2 3.3-12.2z"/>
			<path id="&lt;Compound Path&gt;" fill-rule="evenodd" class="s0" d="m615.1 183.9q0 2.9-1.3 4.2-1.3 1.3-4.1 1.3h-6.9q-2.8 0-4.1-1.3-1.3-1.3-1.3-4.2v-8.8q0-2.8 1.3-4.1 1.3-1.3 4.1-1.3h6.9q2.8 0 4.1 1.3 1.3 1.3 1.3 4.1zm-4.9-8.7q0-1.6-1.6-1.6h-4.7q-1.6 0-1.6 1.6v8.7q0 1.7 1.6 1.7h4.7q1.6 0 1.6-1.7z"/>
			<path id="&lt;Compound Path&gt;" class="s0" d="m634.5 189.1h-5.2l-6.5-11.5v11.5h-4.9v-19.1h5.2l6.5 11.4v-11.4h4.9z"/>
		</g>
	</g>
</svg>