<svg version="1.2" xmlns="http://www.w3.org/2000/svg" viewBox="0 0 16 16" width="16" height="16">
	<title>창원특례시 조합 심벌마크1</title>
	<defs>
		<linearGradient id="g1" x2="1" gradientUnits="userSpaceOnUse" gradientTransform="matrix(20.83,0,0,17.383,-2.342,7.869)">
			<stop offset="0" stop-color="#44bbbd"/>
			<stop offset="1" stop-color="#297aaf"/>
		</linearGradient>
	</defs>
	<style>
		.s0 { fill: url(#g1) } 
	</style>
	<path id="&lt;Path&gt;" class="s0" d="m15.8 6.3c-0.4-1-1.3-1.8-3.1-1.9-2.4 0-4 1.4-4.4 2.5 0 0.1 0.1 0.2 0.3 0.1 0.6-0.4 1.5 0 1.9 0.6q0.2 0.3 0.2 0.8c0.2-0.4 0.6-0.6 1-0.6 0.5 0 1 0.5 1 1 0 0.6-0.5 1.1-1 1.1-0.5 0-0.8-0.3-1-0.7q-0.1 0.6-0.4 1.2c-0.8 1.2-2.7 3.2-7.7 3.3 3.5 1.2 7.3 0.7 10.1-1.3 2.8-1.9 3.2-4 3.2-4 0.2-0.8 0.1-1.5-0.1-2.1zm-7.7 3.6c1.2-1 1.2-2.1 0.8-2.6-0.1-0.1-0.2 0-0.2 0-0.2 0.5-2 1.1-3.4 0.2q0.1 0.2 0.1 0.5c0 0.4-0.4 0.8-0.8 0.8-0.5 0-0.9-0.4-0.9-0.8 0-0.5 0.4-0.9 0.8-0.9q0.2 0 0.3 0-0.2-0.2-0.4-0.6c-1-1.9 0.2-4.4 0.2-4.4-1.9 1.1-3.8 3.1-4.4 5.2-0.6 1.9 0.2 3.2 1.3 3.9 1.7 0.9 4.8 0.2 6.6-1.3zm-0.1-2.4c0.1 0 0.1-0.1 0.1-0.2-0.4-0.5-0.5-1.8 0.6-3q-0.1 0-0.2 0c-0.4 0-0.8-0.3-0.8-0.7 0-0.4 0.4-0.8 0.8-0.8 0.4 0 0.8 0.4 0.8 0.8q0 0.1-0.1 0.3 0.3-0.3 0.7-0.5c0 0 2.3-1.3 4.7-0.6-1.2-1.2-4.1-2.4-6.5-1.4-1.9 0.8-2.6 2.6-2.2 4 0.2 1.3 1.2 2 2.1 2.1z"/>
</svg>